<svg xmlns="http://www.w3.org/2000/svg" width="4096px" height="3521px" style="shape-rendering:geometricPrecision;text-rendering:geometricPrecision;image-rendering:optimizeQuality;fill-rule:evenodd;clip-rule:evenodd"><path fill="#ce8900" d="M1997.5-.5h100v60h60v101h-60v52c106.36 5.837 206.69 33.337 301 82.5 60.92 32.827 112.92 76.494 156 131 93.57 9.73 177.9 42.397 253 98 50.53 38.853 88.7 87.353 114.5 145.5 44.13 120.216 25.13 229.216-57 327a574.193 574.193 0 0 1-59 55c-6.3 40.97-29.14 67.8-68.5 80.5a86.877 86.877 0 0 1-23 2.5c-8.8-.08-17.47-.92-26-2.5-48.17 59-96.51 117.84-145 176.5-164.7-136.72-354.37-196.56-569-179.5-159.88 16.86-300.88 76.69-423 179.5a37557.61 37557.61 0 0 1-145-176.5c-48.26 9.62-84.43-6.88-108.5-49.5a154.243 154.243 0 0 1-9-31c-37.32-28.98-68.66-63.317-94-103-52.81-90.548-59.81-184.548-21-282 32.54-70.209 81.71-125.709 147.5-166.5 67.42-40.806 140.42-65.473 219-74 36.44-46.528 79.77-85.194 130-116 77.46-45.713 160.8-75.38 250-89a942.972 942.972 0 0 1 77-8.5v-52h-60v-101h60v-60Zm0 519c-127.55 5.555-249.55 34.388-366 86.5a1148.074 1148.074 0 0 0-57 29.5c-2.88-53.17 11.29-101.17 42.5-144 34.24-44.587 76.08-80.087 125.5-106.5 80.07-41.103 165.07-64.603 255-70.5v205Zm522 115c-113.95-61.746-235.62-98.58-365-110.5a3547.994 3547.994 0 0 0-57-4.5c-.33-68.337 0-136.67 1-205 92.45 6.027 179.45 30.86 261 74.5 44.87 25.197 83.37 58.03 115.5 98.5 32.94 43.63 47.77 92.63 44.5 147Zm-1035 62c-62.33 48.152-110.83 107.485-145.5 178-9.82 21.3-17.65 43.3-23.5 66-57.71-58.002-77.21-127.002-58.5-207 14.25-43.671 38.41-80.837 72.5-111.5 45.03-39.516 96.7-66.349 155-80.5-13.3 51.654-13.3 103.321 0 155Zm1295 244c-16.39-58.447-43.55-111.114-81.5-158-26.1-31.937-55.27-60.603-87.5-86 13.33-52.008 13.33-104.008 0-156 71.08 18.267 131.24 54.267 180.5 108 22.49 25.975 38.49 55.642 48 89 13.24 52.969 6.58 103.302-20 151a260.104 260.104 0 0 1-39.5 52Z" style="opacity:.997"/><path fill="#a32034" d="M1997.5 518.5c.17 74.667 0 149.334-.5 224-33.68 25.705-46.02 59.371-37 101 9.74 32.071 30.57 53.238 62.5 63.5-.19 20.574-7.03 38.74-20.5 54.5-25.97 28.238-58.14 44.74-96.5 49.5-51.69 7.74-98.36-3.92-140-35-8.45-7.444-15.78-15.777-22-25 37.47-25.714 50.97-60.881 40.5-105.5-18.02-46.983-52.18-68.149-102.5-63.5-7.9 1.8-15.57 4.3-23 7.5-36.24-31.453-61.74-70.119-76.5-116a267.957 267.957 0 0 1-7.5-39 1148.074 1148.074 0 0 1 57-29.5c116.45-52.112 238.45-80.945 366-86.5ZM2097.5 518.5c18.95 1.342 37.95 2.842 57 4.5 129.38 11.92 251.05 48.754 365 110.5-2.07 31.031-10.9 60.031-26.5 87-15.33 25.835-34.16 48.835-56.5 69-41.74-16.856-77.9-8.856-108.5 24-20.63 26.806-25.96 56.473-16 89 7.84 20.333 20.68 36.666 38.5 49-16.76 24.065-39.09 40.898-67 50.5-52.42 17.92-103.42 14.59-153-10-22.89-11.888-40.05-29.388-51.5-52.5-4.82-10.43-6.99-21.263-6.5-32.5 35.28-12.288 56.78-36.788 64.5-73.5 4.28-38.097-8.89-68.43-39.5-91a6288.217 6288.217 0 0 1 0-224ZM1484.5 695.5c23.02 72.037 63.52 132.371 121.5 181 3.64 36.266 21.48 62.766 53.5 79.5 14.03 6.106 28.7 8.939 44 8.5.8 22.781-4.36 44.11-15.5 64-34.14 55.02-83.64 86.18-148.5 93.5-26.5 2.1-51.16-3.56-74-17-3.59-2.71-7.09-5.55-10.5-8.5 2.47-5.22 5.14-10.55 8-16 15.6-41.1 7.76-76.93-23.5-107.5-31.42-24.225-65.25-28.058-101.5-11.5-8.68-6.177-16.18-13.51-22.5-22 5.85-22.7 13.68-44.7 23.5-66 34.67-70.515 83.17-129.848 145.5-178ZM2610.5 695.5c32.23 25.397 61.4 54.063 87.5 86 37.95 46.886 65.11 99.553 81.5 158-6.33 8.666-14 15.999-23 22-41.85-18.862-78.69-11.862-110.5 21-23.13 29.1-28.13 61.1-15 96l9 18c-19.17 15.95-41.33 24.45-66.5 25.5-63.34-.59-114.84-25.42-154.5-74.5-19.07-24.72-28.24-52.721-27.5-84 47.46.357 78.63-21.977 93.5-67a117.374 117.374 0 0 0 3-19c58.21-49.031 99.04-109.698 122.5-182Z" style="opacity:.999"/><path fill="#cf8a00" d="M4095.5 1442.5v2c-682.31 691.97-1364.64 1383.97-2047 2076h-2c-682.36-692.03-1364.694-1384.03-2047-2076v-2c503 .17 1006 0 1509-.5 149.67-144.39 329.17-218.22 538.5-221.5 209.33 3.28 388.83 77.11 538.5 221.5 503.33.5 1006.67.67 1510 .5Z" style="opacity:.998"/><path fill="#fefefe" d="M2015.5 1291.5c219.91-4.58 404.08 73.42 552.5 234 135.19 156.59 194.19 338.59 177 546-19.77 177.69-93.93 327.86-222.5 450.5-145 131.58-316 193.92-513 187-192.18-13.87-353.02-91.37-482.5-232.5-126.06-144.8-186.39-313.8-181-507 11.18-192.48 85.68-355.32 223.5-488.5 125.73-115.89 274.4-179.06 446-189.5Z" style="opacity:1"/><path fill="#4dab70" d="M2122.5 1425.5h-263v99h-1v-100c88.17-.33 176.17 0 264 1Z" style="opacity:1"/><path fill="#008835" d="M2122.5 1425.5c57.71 5.93 97.87 35.6 120.5 89 5.2 13.19 8.04 26.86 8.5 41v41h97c67.31 6.17 115.15 39.84 143.5 101a167.39 167.39 0 0 1 12 46c.5 21 .67 42 .5 63 9.49.99 19.15 1.33 29 1v39h-29v40c-.94 44.36-16.61 82.53-47 114.5 26.07 27.32 41.57 59.82 46.5 97.5.5 20 .67 40 .5 60h30v40h-30c.17 18 0 36-.5 54-7.71 66.31-41.88 113.14-102.5 140.5-16.97 7.02-34.64 10.85-53 11.5h-97v41c-5.32 56.49-33.65 96.66-85 120.5-14.05 6.01-28.72 9.18-44 9.5h-263v-99h28c1-23.83 1.33-47.83 1-72h-273v-99h29v-107c-9.82-.99-19.82-1.33-30-1v-39h30v-108h-29v-100h29v-108h-30v-40h30v-107h-29v-99c91.17.33 182.17 0 273-1v-71h-29v-99h263Z" style="opacity:1"/><path fill="#cb9011" d="M744.5 1513.5h-289c-96.168-.33-192.168 0-288 1-.543-.06-.876-.39-1-1 192.833-1.33 385.5-1.33 578 0ZM3350.5 1513.5c192.5-1.33 385.17-1.33 578 0-.12.61-.46.94-1 1-95.83-1-191.83-1.33-288-1h-289Z" style="opacity:.804"/><path fill="#fefefe" d="M167.5 1514.5c95.832-1 191.832-1.33 288-1v293a59407.366 59407.366 0 0 1-288-292Z" style="opacity:1"/><path fill="#008834" d="M455.5 1513.5h289v586c-96.668-97.33-193.001-195-289-293v-293Z" style="opacity:1"/><path fill="#fefefe" d="M744.5 1513.5h290v880a60488.963 60488.963 0 0 1-290-294v-586Z" style="opacity:.999"/><path fill="#008834" d="M1034.5 1513.5h289v216c-55.87 159.05-62.04 320.05-18.5 483 5.71 19.84 11.87 39.5 18.5 59v415c-96.67-97.33-193-195-289-293v-880Z" style="opacity:1"/><path fill="#fefefd" d="M1323.5 1513.5c40.34-.33 80.67 0 121 1-51.41 65.12-91.74 136.78-121 215v-216Z" style="opacity:1"/><path fill="#fefefe" d="M2770.5 1513.5c.33 71.84 0 143.5-1 215-28.81-78.16-68.81-149.66-120-214.5 40.33-.5 80.67-.67 121-.5Z" style="opacity:1"/><path fill="#c7e3d2" d="M2770.5 1513.5h1v218c-.9-.79-1.57-1.79-2-3 1-71.5 1.33-143.16 1-215Z" style="opacity:.753"/><path fill="#008834" d="M2771.5 1513.5h289v880c-96 98-192.33 195.67-289 293v-417c54.08-156.01 60.58-314.01 19.5-474-6.01-21.52-12.51-42.85-19.5-64v-218Z" style="opacity:1"/><path fill="#fefefe" d="M3060.5 1513.5h290v586c-96.33 98.33-193 196.33-290 294v-880Z" style="opacity:1"/><path fill="#008835" d="M3350.5 1513.5h289v293c-96 98-192.33 195.67-289 293v-586Z" style="opacity:1"/><path fill="#fefefe" d="M3639.5 1513.5c96.17-.33 192.17 0 288 1a59587.163 59587.163 0 0 1-288 292v-293Z" style="opacity:1"/><path fill="#abd7bd" d="M1858.5 1524.5h30v71h-1v-70c-9.85.33-19.51-.01-29-1Z" style="opacity:1"/><path fill="#9ed1b2" d="M2119.5 1525.5h-132v70h-1v-71c44.5-.33 88.84 0 133 1Z" style="opacity:1"/><path fill="#fefefe" d="M2119.5 1525.5c18.67 3.34 29.67 14.34 33 33v37h-165v-70h132Z" style="opacity:1"/><path fill="#6cba8b" d="M2152.5 1558.5c1 12.49 1.33 25.16 1 38-55.84.33-111.5 0-167-1h166v-37Z" style="opacity:1"/><path fill="#75be91" d="M2251.5 1555.5c1 13.16 1.33 26.49 1 40 32.17-.33 64.17 0 96 1h-97v-41Z" style="opacity:1"/><path fill="#86c69e" d="M1887.5 1595.5h1c-90.83 1-181.83 1.33-273 1v99c-1-33.16-1.33-66.5-1-100h273Z" style="opacity:1"/><path fill="#fefefe" d="M1743.5 1696.5h144v254h-144v-108h26v-40h-26v-106Z" style="opacity:1"/><path fill="#acd8bd" d="M1743.5 1696.5c48.16-1 96.5-1.33 145-1 .33 85.17 0 170.17-1 255v-254h-144Z" style="opacity:1"/><path fill="#fefefe" d="M2152.5 1915.5c-3.02 19.68-14.35 31.02-34 34h-51c.33-9.18-.01-18.18-1-27h-39c-.99 8.82-1.33 17.82-1 27h-39v-253h165v219Z" style="opacity:1"/><path fill="#9bd0b0" d="M2152.5 1915.5v-219h-165v254c-1-84.83-1.33-169.83-1-255h167c.33 73.5 0 146.84-1 220Z" style="opacity:1"/><path fill="#fdfefe" d="M2251.5 1695.5c31.34-.17 62.67 0 94 .5 31.84 4.51 51.68 22.34 59.5 53.5.5 19 .67 38 .5 57h-27v40h27c.17 16 0 32-.5 48-6.81 31.81-26.31 50.31-58.5 55.5-33.33.5-66.67.67-100 .5 2.04-7.88 3.54-15.88 4.5-24 .5-77 .67-154 .5-231Z" style="opacity:1"/><path fill="#72bc8e" d="M2504.5 1806.5h30v40h-1v-39c-9.85.33-19.51-.01-29-1Z" style="opacity:1"/><path fill="#cce7d7" d="M2533.5 1846.5h1c-9.49.99-19.15 1.33-29 1 .33 13.18 0 26.18-1 39v-40h29Z" style="opacity:1"/><path fill="#d3eadc" d="M2027.5 1922.5v28h-40v-1h39c-.33-9.18.01-18.18 1-27ZM2066.5 1922.5c.99 8.82 1.33 17.82 1 27h51c-17.16 1-34.49 1.33-52 1v-28Z" style="opacity:1"/><path fill="#fefefe" d="M1887.5 2050.5v254h-144v-106h26v-40h-26v-108h144Z" style="opacity:1"/><path fill="#dff0e6" d="M1987.5 2051.5v-1h40v29c-.99-9.15-1.33-18.49-1-28h-39ZM2118.5 2051.5h-51c.33 9.51-.01 18.85-1 28v-29c17.51-.33 34.84 0 52 1Z" style="opacity:1"/><path fill="#fefefe" d="M2378.5 2197.5c8.82.99 17.82 1.33 27 1v45c-3.02 26.53-16.69 45.36-41 56.5a69.555 69.555 0 0 1-21 4.5h-91c.33-74.84 0-149.5-1-224-.26-9.91-1.93-19.57-5-29 34.33-1.17 68.66-1.33 103-.5 29.18 6.18 47.68 23.68 55.5 52.5.5 18 .67 36 .5 54h-27v40ZM1987.5 2051.5h39c-.33 9.51.01 18.85 1 28h39c.99-9.15 1.33-18.49 1-28h51c19.19 2.85 30.52 13.85 34 33v220h-165v-253Z" style="opacity:1"/><path fill="#72bc8d" d="M1614.5 2158.5v39c10.18-.33 20.18.01 30 1h-31c-.33-13.51 0-26.84 1-40Z" style="opacity:1"/><path fill="#76be91" d="M2378.5 2197.5h28c.33 15.51 0 30.84-1 46v-45c-9.18.33-18.18-.01-27-1Z" style="opacity:1"/><path fill="#c7e3d2" d="M2771.5 2269.5v417c0 .67-.33 1-1 1 .33-138.5 0-276.83-1-415 .43-1.21 1.1-2.21 2-3Z" style="opacity:.753"/><path fill="#fefefe" d="M2769.5 2272.5c1 138.17 1.33 276.5 1 415-96 98-192.33 195.67-289 293v-336c134.41-94.11 230.41-218.11 288-372ZM1323.5 2271.5c58.75 154.2 155.41 278.87 290 374v335c-97-97.67-193.67-195.67-290-294v-415Z" style="opacity:1"/><path fill="#80c399" d="M1887.5 2050.5c1 84.83 1.33 169.83 1 255-48.5.33-96.84 0-145-1h144v-254Z" style="opacity:1"/><path fill="#7dc298" d="M1987.5 2050.5v254h165v-220c1 73.5 1.33 147.16 1 221h-167c-.33-85.17 0-170.17 1-255Z" style="opacity:1"/><path fill="#7dc297" d="M2251.5 2080.5c1 74.5 1.33 149.16 1 224h91c-30.5 1-61.16 1.33-92 1v-225Z" style="opacity:1"/><path fill="#99cfae" d="M1615.5 2404.5h273c.33 24.17 0 48.17-1 72v-71c-90.83.33-181.5 0-272-1Z" style="opacity:1"/><path fill="#fefefe" d="M2152.5 2441.5c-3 19.67-14.33 31-34 34h-131v-70h165v36Z" style="opacity:1"/><path fill="#a2d3b5" d="M2152.5 2441.5v-36h-165v70h131c-43.83 1-87.83 1.33-132 1v-72h167c.33 12.51 0 24.84-1 37Z" style="opacity:1"/><path fill="#91cba7" d="M2348.5 2404.5c-31.83 1-63.83 1.33-96 1 .33 13.51 0 26.84-1 40v-41h97Z" style="opacity:1"/><path fill="#42a769" d="M1859.5 2476.5v99h263c-87.83 1-175.83 1.33-264 1-.33-33.5 0-66.84 1-100Z" style="opacity:1"/><path fill="#008834" d="M1613.5 2645.5c87.99 59.82 184.33 100.15 289 121v507c-96.67-97.33-193-195-289-293v-335ZM2481.5 2644.5v336c-96 98-192.33 195.67-289 293v-507c104.75-21.22 201.09-61.89 289-122Z" style="opacity:1"/><path fill="#fefefe" d="M1902.5 2766.5c96.66 17.32 193.33 17.32 290 0v507c-47.98 49.31-96.31 98.31-145 147-48.69-48.69-97.02-97.69-145-147v-507Z" style="opacity:1"/></svg>