<svg xmlns="http://www.w3.org/2000/svg" xml:space="preserve" width="727.32745" height="892.23956" viewBox="0 0 727.32745 892.23954"><path d="M114.515 201.736c-82.997 89.66-91.2 170.43-91.2 246.81v302.1H568.81v-302.1c0-76.38-8.204-157.15-91.2-246.81-78.09-84.359-181.545-120.27-181.545-120.27s-103.461 35.911-181.55 120.27z" style="fill:#2744a0;fill-opacity:1;fill-rule:nonzero;stroke:none" transform="matrix(1.33333 0 0 -1.33333 -31.087 1000.862)"/><path d="M548.74 645.197H43.407v85.357h505.31v-85.128l.021-.23z" style="fill:#fcce0d;fill-opacity:1;fill-rule:nonzero;stroke:none" transform="matrix(1.33333 0 0 -1.33333 -31.087 1000.862)"/><path d="M56.125 658.094v59.636h18.897c5.776 0 9.931-1.32 12.464-3.958 2.534-2.638 3.801-6.959 3.801-12.959 0-5.897-1.349-10.288-4.048-13.171-2.698-2.885-6.822-4.326-12.369-4.326h-7.95v-25.222H56.124m10.493 33.451h4.562c3.398 0 5.783.68 7.152 2.041 1.37 1.362 2.054 3.687 2.054 6.98 0 3.319-.628 5.62-1.884 6.902-1.255 1.283-3.645 1.926-7.17 1.926h-4.714zM91.502 658.094l13.195 59.636h14.642l13.31-59.636h-11.752l-2.889 14.962H105.46l-2.815-14.962H91.502m15.667 23.94h9.28l-4.678 25.01zM177.999 658.094h-12.352c-.809 2.495-1.114 7.836-1.135 17.12 0 3.46-.725 5.835-2.173 7.127-1.448 1.29-4.395 1.937-8.84 1.937h-3.736v-26.184H139.29v59.636h19.506c5.893 0 10.137-1.22 12.728-3.66 2.592-2.44 3.89-6.423 3.89-11.949 0-3.874-.695-6.927-2.083-9.16-1.39-2.234-3.433-3.543-6.132-3.93 5.147-1.393 7.773-5.845 8.063-13.351.173-4.477.261-10.043.672-12.386.499-2.85 2.066-5.2 2.066-5.2m-28.236 34.414h6.289c3.175 0 5.379.644 6.611 1.935 1.232 1.29 1.849 3.602 1.849 6.934 0 2.969-.675 5.046-2.02 6.235-1.347 1.187-3.799 1.782-7.356 1.782h-5.373zM185.05 658.094v59.636h16.407l8.014-38.609 8.045 38.609h16.376v-59.636h-10.367l.227 52.898-10.914-52.898h-6.733l-10.849 52.898.267-52.898zM240.334 658.094l13.196 59.636h14.641l13.31-59.636h-11.752l-2.888 14.962h-12.55l-2.815-14.962h-11.142m15.667 23.94h9.28l-4.677 25.01zM331.728 679.362h10.58c0-.259.077-2.037.077-2.32 0-6.883-1.427-11.993-4.279-15.331-2.852-3.338-7.217-5.006-13.097-5.006-2.79 0-5.186.369-7.188 1.104a13.18 13.18 0 0 0-5.17 3.427c-1.976 2.067-3.37 4.907-4.183 8.522-.812 3.616-1.215 9.918-1.215 18.906 0 6.145.24 11.03.723 14.66.481 3.629 1.231 6.334 2.248 8.115 1.573 2.738 3.527 4.72 5.863 5.947 2.334 1.226 5.318 1.84 8.95 1.84 5.937 0 10.259-1.573 12.962-4.72 2.704-3.145 4.068-8.198 4.095-15.158h-10.581v1.429c0 3.218-.516 5.619-1.544 7.202-1.03 1.583-2.599 2.377-4.708 2.377-2.618 0-4.404-1.097-5.357-3.292-.954-2.194-1.43-8.26-1.43-18.199 0-10.737.463-17.268 1.39-19.591.926-2.325 2.699-3.485 5.314-3.485 2.436 0 4.137.905 5.101 2.718.965 1.812 1.449 5.16 1.449 10.045v.81zM347.527 658.094l13.197 59.636h14.641l13.31-59.636h-11.751l-2.889 14.962h-12.55l-2.815-14.962h-11.143m15.668 23.94h9.28l-4.677 25.01zM395.315 658.094v59.636h10.9v-49.483h19.666v-10.153zM457.424 679.362h10.579c0-.259.077-2.037.077-2.32 0-6.883-1.426-11.993-4.277-15.331-2.854-3.338-7.218-5.006-13.098-5.006-2.789 0-5.185.369-7.187 1.104a13.18 13.18 0 0 0-5.17 3.427c-1.978 2.067-3.372 4.907-4.184 8.522-.811 3.616-1.215 9.918-1.215 18.906 0 6.145.24 11.03.723 14.66.481 3.629 1.23 6.334 2.247 8.115 1.574 2.738 3.527 4.72 5.863 5.947 2.335 1.226 5.32 1.84 8.95 1.84 5.938 0 10.26-1.573 12.963-4.72 2.704-3.145 4.068-8.198 4.095-15.158H457.21v1.429c0 3.218-.516 5.619-1.545 7.202-1.028 1.583-2.599 2.377-4.707 2.377-2.618 0-4.405-1.097-5.356-3.292-.954-2.194-1.43-8.26-1.43-18.199 0-10.737.462-17.268 1.389-19.591.926-2.325 2.698-3.485 5.314-3.485 2.436 0 4.137.905 5.102 2.718.964 1.812 1.448 5.16 1.448 10.045v.81zM477.605 658.094v59.636h10.902v-59.636zM498.143 687.965c0 6.326.29 11.38.87 15.165.583 3.784 1.495 6.631 2.733 8.543 1.694 2.71 3.719 4.648 6.072 5.81 2.351 1.162 5.45 1.744 9.295 1.744 3.843 0 6.94-.582 9.295-1.744 2.35-1.162 4.388-3.1 6.108-5.81 1.24-1.964 2.144-4.83 2.713-8.6.569-3.77.854-8.807.854-15.108 0-6.275-.292-11.305-.874-15.089-.58-3.784-1.479-6.656-2.693-8.618-1.72-2.713-3.757-4.648-6.108-5.81-2.354-1.162-5.452-1.743-9.295-1.743-3.844 0-6.944.58-9.295 1.743-2.353 1.162-4.378 3.097-6.072 5.81-1.238 1.91-2.15 4.757-2.732 8.541-.581 3.784-.871 8.84-.871 15.166m11.115-.005c0-9.829.562-16.016 1.687-18.564 1.126-2.549 3.206-3.82 6.243-3.82 2.986 0 5.029 1.246 6.128 3.743 1.101 2.495 1.652 8.708 1.652 18.641 0 9.931-.558 16.165-1.67 18.7-1.114 2.535-3.177 3.802-6.185 3.802-3.011 0-5.074-1.267-6.185-3.802-1.115-2.535-1.67-8.769-1.67-18.7z" style="fill:#2744a0;fill-opacity:1;fill-rule:nonzero;stroke:none" transform="matrix(1.33333 0 0 -1.33333 -31.087 1000.862)"/><path d="M198.803 155.695c42.822-29.652 82.127-46.693 97.263-52.726l-.003 304.748-.176-.006h-97.118l.021-.418V156.279l.013-.584zM140.65 204.398V407.15l.013.56h-95.83l-.274.009c3.935-59.424 20.426-122.897 84.701-192.332 3.738-4.04 7.54-7.963 11.393-11.772l-.002.784zM43.408 465.86v159.059l.035.185h97.203l.004-.445v-158.3l.013-.509H43.835l-.428.01zM295.86 465.85h-97.056l-.013.652v158.246l-.004.356h97.274v-.213l.002-159.036-.202-.005z" style="fill:#fff;fill-opacity:1;fill-rule:nonzero;stroke:none" transform="matrix(1.33333 0 0 -1.33333 -31.087 1000.862)"/><path d="M295.887 407.71H198.77l.02-.417V156.279l.013-.584c-19.299 13.362-39.313 29.287-58.15 47.92l-.002.783V407.15l.013.56H44.833l-.274.009c-.915 13.82-1.15 27.422-1.15 40.828v17.313l.427-.01h96.828l-.013.51v158.299l-.004.445h58.14l.004-.356V466.502l.013-.652h97.057l.202.005v-58.139l-.176-.006z" style="fill:#231f20;fill-opacity:1;fill-rule:nonzero;stroke:none" transform="matrix(1.33333 0 0 -1.33333 -31.087 1000.862)"/><path d="M451.914 204.672v420.062l-.006.37h-38.927l-.03-.456V170.514l-.006-.477c13.15 10.149 26.337 21.479 38.986 34.033l-.017.602zM491.245 249.697c17.653 24.174 29.933 47.623 38.456 70.44l.14.388V624.69l.024.414h-38.974l-.013-.542V249.22l.367.478zM373.763 142.822a525.578 525.578 0 0 0-38.451-21.836l-.289-.154v503.951l-.007.321h38.978l-.008-.542V142.955l-.224-.133z" style="fill:#fcce0d;fill-opacity:1;fill-rule:nonzero;stroke:none" transform="matrix(1.33333 0 0 -1.33333 -31.087 1000.862)"/></svg>