<svg xmlns="http://www.w3.org/2000/svg" width="155.92842mm" height="158.75mm" viewBox="0 0 155.92843 158.75"><path d="m351.664 104.098-17.08 46.763-49.66 28.623v15.293l-53.39 44.805 27.632 74.852h33.27l-16.907 44.875h145.78l10.67-29.211h-64l5.478-15h64l11.03-30.2h-64l5.478-15h64l11.031-30.2h-64l5.479-15h64l11.029-30.2h-64l5.478-15h64l11.032-30.2h-64l5.478-15h64l11.031-30.2zm-26.133 75.386h25.367l-5.623 15h-45.744z" style="fill:#9e8c5c;fill-opacity:1;fill-rule:evenodd;stroke:none;stroke-width:.930036" transform="translate(-25.546 -4.58) scale(.31956)"/><path d="m133.236 104.098 93.215 255.21h32.965l11.018-29.63H248.03l-34.912-95.414 55.805-47.487v-15.293l42.517-25.367-15.347-42.02z" style="fill:#9e8c5c;fill-opacity:1;fill-rule:evenodd;stroke:none;stroke-width:.930036" transform="translate(-25.546 -4.58) scale(.31956)"/><path d="m384.451 14.332-27.308 74.766h162.859l27.307-74.766Z" style="fill:#2c673c;fill-opacity:1;fill-rule:evenodd;stroke:none;stroke-width:.930036" transform="translate(-25.546 -4.58) scale(.31956)"/><path d="m100.451 14.332 27.307 74.766h162.857L263.31 14.332Z" style="fill:#ee732e;fill-opacity:1;fill-rule:evenodd;stroke:none;stroke-width:.930036" transform="translate(-25.546 -4.58) scale(.31956)"/><g style="fill:#9e8c5c;fill-opacity:1"><path d="m64.596 105.617-2.255 18.344h-.067l-2.189-18.344h-5.009L59.09 129.3h6.435l4.014-23.684zM71.934 129.301h9.952v-4.312h-5.109v-5.905h4.976v-4.312h-4.976v-4.843h5.109v-4.312h-9.952zM95.019 122.302h-.067l-4.113-16.685h-6.137V129.3h4.578V112.75h.066l4.18 16.552h6.07v-23.684H95.02zM102.642 129.301h9.952v-4.312h-5.109v-5.905h4.976v-4.312h-4.976v-4.843h5.109v-4.312h-9.952zM127.481 129.301v-4.312h-6.6l6.566-15.06v-4.312h-11.742v4.312h5.74l-5.806 15.06v4.312zM135.19 129.301v-23.684h-4.843V129.3zM142.522 129.301l.498-4.18h3.35l.564 4.18h5.009l-4.014-23.684h-6.435L137.48 129.3zm2.223-19.704h.066l1.028 11.212h-2.322zM159.106 129.301h4.843v-10.216h4.876v-4.313h-4.876v-4.843h5.108v-4.312h-9.951zM171.971 124.193c0 3.914 1.692 5.573 6.104 5.573s6.104-1.659 6.104-5.573v-5.038h-4.844v5.237c0 .697-.597 1.061-1.26 1.061-.863 0-1.26-.364-1.26-1.658v-12.672c0-1.293.397-1.658 1.26-1.658.663 0 1.26.365 1.26 1.061v4.308h4.844v-4.109c0-3.914-1.692-5.573-6.104-5.573s-6.104 1.659-6.104 5.573z" style="font-weight:700;font-stretch:condensed;font-size:40px;font-family:Folio;letter-spacing:.510476px;fill:#9e8c5c;fill-opacity:1;stroke-width:.829292" transform="matrix(1.20779 0 0 1.20779 -66.52 2.02)"/></g></svg>