<svg xmlns="http://www.w3.org/2000/svg" width="141.7" height="141.7"><path fill="#624839" d="M1.3 70.5C1.3 32.1 32.4 1 70.8 1s69.6 31.1 69.6 69.6c0 38.4-31.1 69.6-69.6 69.6S1.3 108.9 1.3 70.5z"/><path fill="#fff" d="M4.4 70.5c0-36.7 29.7-66.4 66.4-66.4s66.4 29.7 66.4 66.4-29.7 66.4-66.4 66.4c-36.7.1-66.4-29.7-66.4-66.4z"/><path fill="#E30613" d="M29.8 70.5c0-22.7 18.4-41 41-41 22.7 0 41 18.4 41 41 0 22.7-18.4 41-41 41-22.6.1-41-18.3-41-41z"/><g fill="#624839"><path d="M27.9 93.3h-3l-1.5-2.6-1.5 2.6H19l1.5 2.5-1.5 2.6h3l1.5 2.5 1.5-2.5h2.9l-1.5-2.6 1.5-2.5zM122.9 93.3h-3l-1.5-2.6-1.5 2.6H114l1.5 2.5-1.5 2.6h2.9l1.5 2.5 1.5-2.5h3l-1.5-2.6 1.5-2.5zM78.6 8.8l-4.4-.4-1.4 16.2 4.8.4.5-5.3c4.2.5 7.1-.6 7.5-4.8.3-4.2-2.8-5.8-7-6.1zm2.1 5.6c-.1 1.2-1 1.8-2.3 1.6l.3-3.7h.4c1.1.1 1.7 1.1 1.6 2.1zM97.4 32.5l3.9-16.3-5.3-2.6-11.2 12.7 4.5 2.2 1.3-1.7 2.9 1.5-.6 2 4.5 2.2zM92.7 24l2.3-3.1c.6-.8 1.2-1.7 1.8-2.5-.3 1-.7 1.9-1 2.9l-1.2 3.6-1.9-.9zM25.8 61.5l-6.1-1 .6-3.5-3.8-.6-.6 3.4-2.3-.4.6-3.7-3.8-.6-1.5 8.4L25 66.3l.8-4.8zM16.9 39.6c-.6.6-1.1 1.3-1.5 2-1.1 2.1-2.5 7.6 4 10.9 5 2.5 8.9.8 10.7-2.8.5-1 .7-1.8.8-2.9L27 44.5c.2 1 .3 1.8-.2 2.8-1.1 2.2-3.5 1.6-5.2.7-1.6-.8-3.6-2.5-2.4-4.8.5-.9 1-1.2 1.9-1.6l-4.2-2zM114.5 56.3l3.5-1.6-1.5-3.3 11.4-5.1-2-4.4-14.8 6.6 3.4 7.8zM117.1 29l-7.5 7c-.3.3-.7.7-1.1.9-.4.2-.9.2-1.3-.3-.5-.5-.4-.9-.2-1.4.2-.4.6-.8 1-1.1l7.5-7-3.3-3.5-7.8 7.3c-1.4 1.3-4 4.4-.2 8.5s7 1.8 8.5.4l7.8-7.3-3.4-3.5zM60.7 26.1c1.4-.5 2.2-1.9 1.8-3.2-.5-1.4-2-2-3.5-1.4-1.3.5-2.1 1.9-1.7 3.2.5 1.2 2 1.9 3.4 1.4zM54.1 27.8l-5.2-11.2 2.6-1.2-1.7-3.6-9.3 4.4 1.6 3.6 2.5-1.1 5.2 11.1 4.3-2zM38 37.5c1.2-.4 2.3-1 3.2-1.8 2.6-2.2 2.8-5.5.9-7.8-.8-.9-1.6-1.4-2.5-1.6-.9-.2-1.9-.2-3.1 0-.3 0-.7.1-1.1.1-.4 0-.7-.1-.9-.4-.4-.5-.1-1.2.3-1.6.9-.7 1.7-1 2.8-1.2l-2.7-3.1c-1.1.3-2.3.8-3.2 1.6-3.2 2.7-2 6.2-.7 7.6.8.9 1.6 1.4 2.6 1.6 1 .2 2 .1 3.2 0 .4 0 .7-.1 1 0 .3 0 .6.2.9.5.5.5.1 1.3-.4 1.7-.9.8-1.6 1-3 1.1l2.7 3.3zM116.4 66.3l16.2-2.2-.7-4.8-16.1 2.2.6 4.8zM87.3 113.5c-4.7 1.6-4.4 6.6-3.3 10 1.2 3.4 4 7.5 8.7 5.9 4.7-1.6 4.4-6.6 3.3-10-1.1-3.4-4-7.5-8.7-5.9zm1.3 3.5c1.4-.5 2.4 2.2 3 3.9.6 1.7 1.4 4.4 0 4.9s-2.4-2.2-3-3.9c-.6-1.7-1.4-4.4 0-4.9zM48.8 129.2l6.4-15-5.3-2.3-2.4 3.1 1.7.8-4.9 11.5 4.5 1.9zM79.9 132.4l-1.7-16.2-5.7.6-.6 3.8 1.9-.1 1.3 12.4 4.8-.5zM63 119.2c1.6.3 1.4 1.7 1.2 2.4-.2.7-.6 1.9-2.1 1.6-1.4-.3-1.5-1.5-1.3-2.2.2-.8.7-2.1 2.2-1.8zm-6.2 12.2 4.7.9 2.4-2.4c1.7-1.9 4.1-4.7 4.7-7.2.7-3.2-.8-6.2-4.5-7-3.8-.8-6.7 1.1-7.4 4.5-.5 2.2.4 5.4 3.2 6 .7.1 1.2.1 1.7-.1l-4.8 5.3z"/></g><g fill="#fff"><path d="M92.8 43.9h-3l-1.5-2.6-1.5 2.6h-2.9l1.4 2.6-1.4 2.5h2.9l1.5 2.6 1.5-2.6h2.9l-1.4-2.5 1.5-2.6zM71.8 45.8c3.2.2 5.5 2.6 5.8 5.8H64.3c.2-3.2 2.6-5.6 5.8-5.8v-6.2h-4v-1.8h4v-5.3h1.8v5.3h4v1.8h-4v6.2h-.1zM46 53.4h15.1V56H46v-2.6zM63.4 53.4h15.1V56H63.4v-2.6zM80.7 53.4h15.2V56H80.7v-2.6zM46 70.3h49.9V73H46v-2.7zM46 85h13.4v2.7H46V85zM82.5 85h13.4v2.7H82.5V85zM47.8 58.1c1.3-.4 3.4-1 5-.1.8.5.3 1.2 0 1.9-.9.6-1.5.9-2.6.9-1 0-1.6-.2-2.4-.8-.3-.7-.8-1.6 0-1.9zM54.9 60.3s-.5-1.5 0-2.1c.6-.7 1.5-.1 2.3-.1.6 0 .9.1 1.5 0 0 0 .4 1.5 0 2.3-.7 1.2-3.8-.1-3.8-.1zM48.6 61.9c-.5.6-.7.7-.8 1.7 0 1 .3 1.6 1 1.6h.6v-1.9c0-.7-.2-1.3-.8-1.4zM65.3 61.9c-.1.6-.1 1.1-.1 1.7 0 .6 0 1.4.6 1.4 1.1.1 1-1.6 1-2.4 0-.6-.8-.6-1.5-.7zM64.6 58.6c0 .4.6 1 .9 1.3.6.5 1.1.4 1.8.4.4 0 .9-.1 1.4-.1.9 0 1.5-.7 1.5-1.6 0-.8-1.2-1.1-2-1.1h-1.9c-.8.1-1.7.1-1.7 1.1zM71.7 60.2c.3.3.6.2 1 .2H74c.7 0 1.2.1 1.8-.4.5-.4.2-.8.2-1.5 0-.6-1.3-.9-2.2-.9-.8 0-1.4-.1-1.9.6-.5.6-.2 2-.2 2zM50.7 62.7c0 .5-.2 1.1-.2 1.6 0 .6 1.3.8 1.9.8 1 .1 1.6.1 2.6.1.8 0 1.5-.6 1.5-1.4 0-.6.1-1.1-.2-1.5-.5-.6-1.1-.6-1.9-.6-1.3-.2-3.3-.3-3.7 1zM68.1 62.7c-.2.6-.1 1.1.3 1.7.6.8 1.2.8 2.5.8s3.2-.6 3-2.4c-.1-.5-1.2-.7-1.8-.9-.1 0-3.6-.7-4 .8zM74.9 63.6c0 .7-.2 1.6.7 1.6.8 0 .9-.4.9-1.1 0-.6.7-2.2-.3-2.3-.4-.1-.7.1-1 .4-.4.4-.3.9-.3 1.4zM82 59.1c0 1.3 1.1 1.9 3.2 1.8 1.2-.1 2.5.1 2.3-2.2 0-.2.2-.5 0-.6-1.5-1.1-1.6 0-2.7 0-1.1-.1-2.8-.1-2.8 1zM89.6 58.7v.9c0 .8.5 1.8 1.3 1.8.3 0 .8-.1 1.2-.1 1.2 0 1.9-1 1.9-2.2 0-.6-.8-1-1.4-1.2l-1.8.2-1 .1c-.2.1-.2.3-.2.5zM83.3 61.8c-.8.7-.9.9-.9 2 0 .2.1 1.1.1 1.2.2 0 .5.1.7.1.7 0 .9-.9.9-1.6 0-.7-.2-1.3-.8-1.7zM85.2 63.5c0 .2.3.7.7 1.1.7.6 1.5.5 2.3.5.9 0 2.2-.4 2.2-1.7.1-1-1.9-1.5-2.8-1.5-.9-.1-2.6.3-2.4 1.6zM89.5 67.2c0 1.1 1.2 1.6 2.4 1.6.5 0 .7-.4 1.2-.6.4-.2.8-.5.8-.9 0-.8-.8-1.2-1.6-1.2-1.2-.1-2.8-.1-2.8 1.1zM86.7 68.8c.7-.5 1.4-1.6.8-2.1-.4-.3-1.1 0-1.4 0-.5 0-.8-.3-1.4-.3-.8 0-1.7-.3-2.1.4-.2.3-.2.6-.2.7 0 .6 0 .9.3 1.4.6.7 1.5 0 2.4 0 .6.1 1.1.3 1.6-.1zM75.6 68.8c-.6.1-1 .2-1.5.2-.9 0-1.4-.2-2.1-.6-.2-.1-.2-.3-.2-.7 0-1 1.8-1.3 2.7-1.3.9 0 1.6.3 1.6 1.2 0 .5-.2.8-.5 1.2zM68.2 66.6h-1.5c-.7 0-2 0-2 .8 0 1 .9 1 1.9 1h1.9c.9 0 1.7-.2 1.7-1.1 0-.4-.5-.7-.9-.7-.6.1-.7 0-1.1 0zM57.1 69H55c0-.3-.6-.5-.6-.8 0-.3.3-.6.5-.9 1-1.1 2.4.1 3.8.1v.8c0 .3-.4.5-.6.6-.5.2-.4.2-1 .2zM51.9 68.8c-1.7 0-1.9.2-3.5 0 0-.1-.5-.8-.5-1.1 0-1 .6-1 1.6-1 1.2 0 3.3-.7 3.3.6-.1.6-.4 1.5-.9 1.5zM47.7 75.9c.1 1.2 1.7.7 2.9.7.9 0 1.5.3 2.4 0 .7-.2.8-.9.8-1.6 0-.3-.6-.5-.9-.6-1-.1-1.2.1-2.1-.4-.9-.6-3.2.4-3.1 1.9zM56 74.4c-.8.6 0 2.1 1.1 2.1h4.7c.9 0 1.9-.4 1.8-1.6-.1-.7-1.1-.6-1.8-.6-1.2 0-1.9.1-3.1.1h-1.2c-.7 0-1.1-.4-1.5 0zM47.7 78.3c-.7.4.1 1.3.1 2 0 .8.6.7 1 .7.6 0 1.2-.3 1.2-.9 0-1-.4-2-1.5-2-.2 0-.5 0-.8.2zM58.7 79.4c0 .6.5 1 1.1 1 .9 0 1.5-1 1.6-2.1-.5-.5-1.3-.1-2.1-.1-.5.1-.6.7-.6 1.2zM54.9 82.8c0 .6.5.9 1.1.9.8 0 1.8.3 2.5-.3.4-.3.4-.8.4-1.4 0-.2 0-.3-.3-.4-.1 0-.8-.1-.9-.1-1.4-.1-2.8-.2-2.8 1.3zM54.1 77.8c-.6 0-.8.4-1.4.4-.7 0-1.8-.2-1.7 1 .1 1.2.8 1.8 2.8 1.8 1.7 0 3-.6 3-2 0-1.1-1.6-1.3-2.7-1.2zM77.7 74.4c1.4-1.4 5.2 0 8.6 0 .6 0 1.4.7 1.4 1.3 0 .8-1.3.9-2.1.9h-6.1c-1.2 0-2.1-.3-1.8-1.9.1-.1-.1-.2 0-.3zM89.6 74.4v1.3c0 .5-.3.9.9.8h2.7c.7 0 .8-1 .8-1.7 0-.3-.4-.4-.7-.4-.6-.1-.9-.2-1.6-.2-.8 0-1.3.2-2.1.2zM80.9 78.8c.2 1.2 1.1 2.1 2.3 2.1 1 0 1.3-1.2 1.6-2.1 0 0-1.1-.8-1.9-.8-.8 0-2 .8-2 .8zM86.3 78.2c-.4.3-.5.6-.5 1.1 0 .5 0 1.1.4 1.6.8 1 1.9 0 3.2 0 .9 0 1.3-.8 1.2-2.1-.1-.7-1.1-.6-1.8-.6h-1.1c.1 0-.9-.3-1.4 0zM92.4 78.9v1.2c0 .5.7.8 1.3.8h.5s.7-1.1.4-1.8c-.2-.5-.8-.9-1-.9-.6 0-.9.4-1.2.7zM93.9 82h-2.3c-1 0-2.4-.1-2.4.8 0 .4.4.8.8 1 .4.2.4.3.9.3.6 0 1.3.1 1.8-.1.4-.1.9-.2 1.2-.5.3-.3.1-1 0-1.5zM89.6 89.1c-.5.5 0 1.4.4 1.9s1 .2 1.6.2c.4 0 .7.1 1.1.1 1.3 0 1.2-1.2 1.2-2.1 0-.2-3.2-1.1-4.3-.1zM84.8 91.2c-.7 0-1.1-.1-1.5-.6-.2-.3-.5-.9-.5-1.2V89c.1 0 .2-.1.3-.1.9 0 1.3-.1 2.2-.1.6 0 1.2.3 1.8.3.3 0 .8.5.8.8 0 1.5-1.4 1.4-3.1 1.3zM83.3 92.3c-.4.6-.7 1.1-.7 1.8 0 .5-.2 1 1.4.8.4-.1 1 .2 1-.7 0-.8-.7-2-1.7-1.9zM85.9 93.7c0 .7.2 1.4 1.4 1.3H89s.9 0 1.4-.2c.4-.2.9-.5.9-1s-.5-.7-.8-1.1c-.3-.5-1.7-.6-2.6-.6-1 .1-2 .7-2 1.6zM92.6 92.4s-.8 1.2-.5 1.9c.2.4.9.7 1.1.7.5 0 1-.3 1-.7.1-1.7-.6-2.1-1.6-1.9zM82.7 97.2v.3c0 .5-.1.8.1 1.2.5.9 1.6.6 2.6.6.9 0 2.2.3 2.2-.6 0-.6.1-1.1-.2-1.6-.4-.6-1.2-.3-1.9-.4-1.7-.2-1.8.1-2.8.5zM89.6 96.7c-.1.7-.5 1-.5 1.7s.7 1.1 1.7.9c.7-.1 1.2.2 1.8-.2.7-.6.8-1.3 1-2.2-.3-.1-.7-.3-1-.3s-.5.1-.8.1c-.9 0-1.3-.1-2.2 0zM87.5 100.6c-.9.4-1.6.6-1.6 1.5 0 .7.9.6 1.6.6 1.1 0 2.5-.6 2.2-1.8-.1-.4-.5-.5-.9-.5-.6 0-.8.1-1.3.2zM82.6 101.9c0 .9 0 2 1.1 2 .7.1 1.1-.9 1.1-1.7 0-.4-.2-.6-.2-1-.3-.4-.7-1-1.2-.7-.5.3-.8.8-.8 1.4zM52.8 100.5c-.8 0-1.8.1-1.8.9 0 1.1 1.2 1.5 2.9 1.3.6 0 1.5.3 1.5-.5.1-1.2-1.5-1.7-2.6-1.7zM57 96.1c-.4.3-1.5.5-2 .6-.5.1-.7.5-.7 1.1v1.4c.4.4.9.2 1.4.2.5 0 .9.1 1.5.1s1.1-.3 1.2-.9c.4-1.2 0-2-1.4-2.5zM49.4 99.3c-.5 0-1.1.2-1.3-.3-.3-.6-.2-1.1-.2-1.8v-.5h4.2c.5 0 1.1.4 1.1.9 0 .9-.6 1.8-1.6 1.8-.8 0-1.4-.1-2.2-.1zM52.6 92.4c-.6 0-1 .8-1 1.4 0 .5-.3 1 .1 1.3 1.7 1.3 6.5.1 6.5.1.2-.5.4-1 .4-1.6 0-1.1-1.4-1.2-2.5-1.2h-3.5zM47.7 95.1c0-.6-.5-1.2-.5-1.8 0-.5.7-.8 1.2-.9 1.5-.2 2 2 1.1 2.7-.6.4-1.8 0-1.8 0zM49.9 91.3c-1.4 0-2.1-.6-2.1-1.7 0-.6.4-1.1 1.4-1 1 .1 1.6 0 2.6 0 .7 0 1 .9 1 1.6-.1 1-1 1.1-2.9 1.1zM57.4 88.5h-1c-1.3 0-2 0-2 .8 0 .4 0 .9.3 1.3.8 0 1.1.7 1.9.7.7 0 1.7-.4 1.6-1.6 0-.6-.3-1.2-.8-1.2zM57.5 100.4c-.6.1-.5 1.1-.6 1.7 0 1.3-.1 1.7.6 1.7.3 0 .9-.2.9-.8 0-.6.3-.8.3-1.4.1-.5-.4-1.1-1.2-1.2zM93.4 64.6h-1.1c-.5 0-.6-.7-.6-1.2 0-.4-.2-.7 0-1 .4-.8 2.4 0 2.4 0v1c-.1.4-.5.9-.7 1.2zM58 43.9h-3l-1.5-2.6-1.4 2.6h-3l1.5 2.6-1.5 2.5h3l1.5 2.6 1.5-2.6H58l-1.5-2.5 1.5-2.6zM65.6 84.7v21.8c1.3.7 2.6.9 4.5.9V79.8c-2.5 0-4.5 2.2-4.5 4.9zM76.3 84.7c0-2.8-1.9-5-4.4-5v27.6c1.6 0 3.1-.1 4.4-.9V84.7z"/><path d="M63.8 105.7v-21c0-3.8 3.1-6.8 7.1-6.8s7.1 3 7.1 6.8v21c.8-.2 1.5-.5 2.2-1V84.5c0-5-4-8.9-9.3-8.9-5.2 0-9.3 3.9-9.3 8.9v20.2c.8.5 1.5.8 2.2 1zM57.4 64c0 .2.3.7.3.9 0 .1.4 0 .5 0 .3 0 .6-.3.6-.6 0-.7.6-1.4.2-2.4-.2-.5-1-.3-1.5 0-.2.7-.1 1.4-.1 2.1zM47.2 83.4c0 .6 1.6.5 2.3.5 1.2.1 1-.3 2.3-.3.3 0 1.5.1 1.5-.3 0-.9-.6-1.3-2-1.4-2.9 0-3.5.4-4.1 1.5zM88 82.7c-.5-.9-1.4-.7-2.3-.7-.5 0-1.1.1-1.6.1s-1 .3-1 .7c0 .4.3.6.7.8.4.3 4.1.1 4.2-.9z"/></g></svg>