<svg xmlns="http://www.w3.org/2000/svg" xml:space="preserve" width="102.63636" height="149.3947" x="0px" y="0px" viewBox="0 0 405.24808 591.60301"><path d="M84.991 94.787c3.316-17.736 15.731-30.916 31.594-34.704.871-.213 1.64-.234 2.587-.416 2.142-.422 4.866-.919 7.483-.619.081.005.198 0 .184 0 2.074.256 4.167.327 6.372.723 2.109.374 4.255 1.14 6.185 1.86.47.177 1.497.956 2.035.826l.092-.209c2.535-2.508 4.628-5.557 7.299-7.95 6.092-5.473 15.163-9.415 25.95-9.4 4.415.005 8.146 1.012 12.01 1.652-2.041-8.614 2.805-16.483 7.297-19.52 1.73-1.172 3.722-1.855 5.73-2.788v-7.538h-7.392V8.75h7.391c0-2.613 0-5.518.088-7.955H207.657c.088 2.437.088 5.343.088 7.955h7.39v7.953h-7.39v7.538c2.007.934 3.998 1.617 5.729 2.788 4.492 3.037 9.338 10.905 7.298 19.52 3.863-.64 7.594-1.647 12.009-1.652 10.788-.014 19.86 3.928 25.95 9.4 2.671 2.393 4.764 5.442 7.299 7.95l.092.21c.538.129 1.565-.65 2.035-.827 1.929-.721 4.076-1.487 6.185-1.86 2.205-.395 4.298-.466 6.372-.723-.015 0 .103.005.184 0 2.618-.3 5.342.197 7.483.619.945.182 1.716.203 2.588.416 15.862 3.787 28.277 16.968 31.593 34.704.635 3.402.92 7.661.644 11.77-1.237 18.494-6.994 30.942-13.487 43.484-2.87 5.554-6.17 12.381-11.083 15.596.732 1.153 1.657 2.269 2.22 3.616 1.279 3.08 1.22 7.329.184 10.535-3.838 11.824-21.547 14.836-32.334 8.156-4.792-2.97-7.4-6.456-8.127-13.737-8.946 9.524-28.389 9.11-35.557-2.066-.9-1.414-1.444-3.076-2.036-4.854-1.255 1.863-2.417 3.846-4.065 5.269-3.846 3.325-9.483 5-15.144 5.044-5.66-.043-11.298-1.72-15.143-5.044-1.649-1.423-2.81-3.406-4.066-5.269-.592 1.778-1.136 3.44-2.036 4.854-7.168 11.176-26.611 11.59-35.557 2.066-.727 7.28-3.334 10.767-8.127 13.737-10.788 6.68-28.496 3.668-32.334-8.156-1.037-3.206-1.095-7.455.185-10.535.562-1.348 1.487-2.463 2.219-3.616-4.913-3.215-8.215-10.042-11.083-15.596-6.493-12.541-12.25-24.99-13.487-43.484-.277-4.109.008-8.368.643-11.77z" style="fill:#f5c03e"/><path d="M125.177 84.765c-6.601.505-11.06 3.698-13.856 8.471-4.988 8.501-1.405 24.087 1.381 32.325 1.493 4.407 3.746 8.487 5.825 12.394 1.367 2.578 3.117 5.026 4.705 7.435 2.19 3.32 4.953 6.459 4.343 12.605 2.679.441 4.666.694 6.745 1.34 3.668 1.13 6.16 3.542 8.868 5.684 0-4.396 1.43-7.047 3.228-9.403.97-1.268 1.976-2.36 3.232-3.306.562-.421 1.033-.768 1.663-1.136-.654-.593-1.352-1.372-1.933-2.065-2.458-2.892-3.859-7.366-5.457-11.154-4.768-11.293-8.966-22.993-10.71-37.8-.533-4.513-.809-9.65-.185-14.357-2.189-.716-5.52-1.21-7.85-1.033M178.927 70.204c5.03.418 9.221 1.999 12.934 3.922v59.08c0 2.29-.106 4.704.185 6.716.35 2.376 1.269 4.442 2.312 6.094-5.826 3.06-8.113 5.15-10.905 11.67-2.389-5.155-7.171-8.085-12.74-9.711.31-1.715.882-3.321.736-5.471-.28-4.245-2.132-6.976-3.417-10.02-1.273-3.024-2.567-6.038-3.79-9.087-3.61-9.007-10.181-29.654-5.636-41.728 1.08-2.866 2.875-4.898 4.9-6.711 3.528-3.17 8.631-5.327 15.42-4.754M282.375 84.765c6.601.505 11.06 3.698 13.856 8.471 4.988 8.501 1.405 24.087-1.381 32.325-1.493 4.407-3.746 8.487-5.825 12.394-1.367 2.578-3.117 5.026-4.705 7.435-2.19 3.32-4.953 6.459-4.342 12.605-2.68.441-4.667.694-6.746 1.34-3.668 1.13-6.16 3.542-8.868 5.684 0-4.396-1.43-7.047-3.228-9.403-.97-1.268-1.976-2.36-3.232-3.306-.562-.421-1.033-.768-1.663-1.136.654-.593 1.352-1.372 1.933-2.065 2.458-2.892 3.859-7.366 5.457-11.154 4.768-11.293 8.966-22.993 10.71-37.8.533-4.513.81-9.65.185-14.357 2.189-.716 5.52-1.21 7.85-1.033M228.625 70.204c-5.03.418-9.221 1.999-12.934 3.922v59.08c0 2.29.106 4.704-.185 6.716-.35 2.376-1.269 4.442-2.312 6.094 5.826 3.06 8.113 5.15 10.905 11.67 2.389-5.155 7.171-8.085 12.74-9.711-.31-1.715-.882-3.321-.736-5.471.28-4.245 2.132-6.976 3.417-10.02 1.273-3.024 2.568-6.038 3.79-9.087 3.61-9.007 10.181-29.654 5.636-41.728-1.08-2.866-2.875-4.898-4.9-6.711-3.528-3.17-8.631-5.327-15.42-4.754M1.75 387.607c0-111.78 90.445-202.394 202.029-202.394 111.572 0 202.023 90.612 202.023 202.394 0 111.787-90.45 202.404-202.023 202.404C92.196 590.01 1.75 499.394 1.75 387.607z" style="fill:#ff1119"/><path d="M28.789 385.781c0 3.874 3.745 7.015 8.374 7.015 4.623 0 8.369-3.141 8.369-7.015 0-3.87-3.746-7.014-8.369-7.014-4.63 0-8.374 3.143-8.374 7.014zM45.653 449.289c9.144-2.717 15.14-12.387 12.842-22.047l-2.957-12.432-35.236 9.203 2.961 12.432c2.384 10.031 12.891 15.649 22.39 12.844zm-14.524-14.902-.848-3.567 19.494-5.095.85 3.571c1.186 4.985-2.4 9.581-7.11 11.007-5.01 1.501-11.126-.623-12.386-5.916zM66.35 466.535l6.015 11.376 7.089-4.117L69.22 454.43l-31.763 18.441 10.531 19.92 7.096-4.123-6.306-11.922 6.034-3.51 5.131 9.712 7.091-4.124-5.127-9.705zM108.822 503.19l-7.725-6.327-22.35 29.98 8.436 6.91c5.912 4.846 13.619 6.16 17.864.463 2.607-3.496 2.229-7.832-.063-11.558 3.542.81 6.809-.06 9.044-3.057 3.906-5.248.286-11.923-5.206-16.41zM98.69 527.805c-1.564 2.1-4.076 1.249-6.982-1.134l-1.105-.898 4.249-5.7 1.1.898c3.097 2.54 4.27 4.784 2.738 6.834zm7.27-12.316c-1.12 1.495-2.768 1.44-5.439-.75l-1.046-.857 3.499-4.7 1.003.822c2.671 2.187 3.098 3.982 1.982 5.485zM115.2 550.644l7.177 5.57 5.02-6.058 10.507 4.902-.931 7.968 8.748 1.86 2.583-39.609-6.74-3.151-26.364 28.518zm23.737-4.402-5.976-2.788 7.371-8.924-1.395 11.712zM270.68 553.352l-12.445 3.99-2.021-6.916 10.13-3.244-2.37-8.127-10.13 3.244-1.482-5.09 11.864-3.801-2.371-8.126-20.203 6.469 10.622 36.385 20.78-6.656zM307.573 533.487l-11.116 6.457-13.675-25.845-7.629 4.425 17.611 33.275 18.74-10.876zM308.297 493.351c-7.013 7.096-4.891 18.967 1.875 26.316 6.774 7.34 18.028 9.967 25.036 2.875 7.013-7.093 4.895-18.967-1.876-26.31-6.77-7.346-18.027-9.97-25.035-2.88zm21.367 23.17c-3.752 3.79-8.931 1.274-13.134-3.285-4.202-4.565-6.426-10.076-2.685-13.861 3.746-3.79 8.927-1.275 13.134 3.286 4.205 4.563 6.426 10.07 2.685 13.86zM357.121 463.275l-24.046.972-4.221 7.99 31.766 18.444 4.226-7.985-18.003-10.454 24.047-.972 4.221-7.985-31.763-18.449-4.23 7.987zM380.722 420.56l7.628-.7-.083-9.354-37.523 5.583-1.532 7.572 32.111 21.083 3.708-8.512-6.698-3.89 2.389-11.782zm-9.809 7.477-9.862-5.698 11.224-1.003-1.362 6.701zM364.061 389.849c0 3.866 3.75 7.01 8.369 7.01 4.628 0 8.38-3.144 8.38-7.01 0-3.874-3.751-7.015-8.38-7.015-4.618 0-8.369 3.14-8.369 7.015zM346.183 345.207l5.18 21.79 7.871-2.058-3.073-12.927 27.367-7.143-2.113-8.865zM335.163 320.263c4.87 8.845 16.38 9.574 24.818 4.468 8.437-5.1 13.593-15.91 8.723-24.755-4.87-8.845-16.381-9.57-24.817-4.466-8.438 5.107-13.594 15.911-8.724 24.753zm13.144-16.73c5.239-3.171 10.874-4.097 13.482.63 2.598 4.724-.983 9.377-6.222 12.55-5.244 3.173-10.885 4.09-13.484-.634-2.601-4.72.98-9.38 6.224-12.546zM318.832 275.755l-10.042 9.815 6.025 6.774 10.045-9.816 23.573-5.777-3.78-8.532-16.875 5.125 1.134-3.232.94-.219 4.637-13.471-.852-.483-.004.01-7.653-4.43zM289.028 222.699l-19.245 32.269 7.391 4.837 10.905-18.286-.33 25.212 7.39 4.841 19.244-32.267-7.395-4.841-10.904 18.282.047-3.56.64-1.135.229-20.122-.596-.417v.016zM253.598 241.969l.401 8.012 8.926.243-4.028-39.48-7.157-1.877-21.23 32.882 7.986 4.173 3.945-6.872 11.157 2.919zm-1.014-20.659.562 11.783-6.338-1.66 5.777-10.123zM208.49 230.653h1.394c7.75 0 15.193-5.517 15.193-13.632 0-8.123-7.444-13.639-15.193-13.639h-10.11v38.05h8.715v-10.779zm0-18.769h1.394c3.087 0 6.354 1.902 6.354 5.137 0 3.229-3.266 5.132-6.354 5.132h-1.395v-10.269zM173.078 229.848c1.788.576 3.47 1.236 3.804 3.176.315 1.87-.79 3.739-2.53 4.32-2.495.816-5.334.22-6.444-2.193l-4.178 7.476c3.542 3.424 8.341 3.91 12.314 3.032 6.33-1.415 10.59-7.874 9.359-14.533-1.071-5.6-5.365-8.144-10.691-9.682l-2.501-.74c-2.69-.763-4.94-1.17-4.788-3.472.092-1.379.94-2.671 2.249-2.963 1.997-.51 4.072-.644 5.433.868l3.93-7.164c-3.378-2.62-6.848-2.95-11.05-2.013-5.272 1.17-10.215 7.005-9.082 13.171 1.11 6.103 6.301 8.193 12.058 10.023l2.117.694zM150.35 241.488l-11.883 5.547-2.81-6.603 9.678-4.516-3.3-7.762-9.679 4.517-2.07-4.867 11.336-5.288-3.296-7.763-19.297 9 14.77 34.757 19.851-9.258zM99.222 283.546c6.853-7.434 5.836-19.747-1.472-26.699-7.052-6.687-18.052-6.889-24.653.27l-8.49 9.214 26.125 26.428 8.49-9.213zm-20.29-20.526c3.401-3.69 9.023-2.943 12.677.487 3.872 3.651 5.394 10.214 1.779 14.138l-2.438 2.646-14.461-14.627 2.442-2.644zM52.55 317.51c8.416 4.881 19.937 4.176 24.598-4.644 2.583-4.876 3.135-9.198 1.395-14.412h-.007l-.182-.615-7.898 1.884.15.426-.01.002c1.455 2.868 1.252 5.869-.435 8.662-2.81 4.526-8.825 3.21-13.327.597-4.502-2.61-8.601-7.165-6.58-12.15 1.23-2.987 3.251-4.713 6.25-5.29l-2.316-7.646c-5.146 1.215-8.345 3.999-10.927 8.873-4.427 8.378.87 19.424 9.288 24.313zM59.818 350.77l-11.679-2.818.3-1.363 15.174-7.393-1.988-8.746-.03.017-.309-1.155-13.568 7.183c-1.411-3.836-4.37-6.561-7.904-7.416-7.086-1.712-13.44 4.306-15.072 11.72l-2.273 10.314 35.393 8.558 1.956-8.9zm-19.273-6.153-.306 1.42-7.908-1.912.314-1.419c.911-4.14 2.641-5.222 5.175-4.607 2.536.614 3.312 3.864 2.725 6.518zM184.043 557.657c3.566-1.736 5.964-5.022 6.534-8.79 1.13-7.52-5.031-13.742-12.208-14.933l-9.988-1.657-5.674 37.58 8.61 1.43 1.872-12.401 1.313.217 8.102 15.345 8.19-2.69-.021-.037 1.005-.264-7.735-13.8zm-2.193-10.242c-.408 2.694-3.446 3.734-6.015 3.308l-1.377-.228 1.265-8.398 1.377.227c4.008.67 5.157 2.4 4.75 5.091zM227.976 561.19l-.271.547c-1.516 2.788-4.005 4.221-7.124 4.262-5.16-.005-7.38-6.01-7.74-11.387-.357-5.376 1.057-11.46 6.146-12.402 3.058-.54 5.544.292 7.638 2.619l4.866-6.205c-3.78-3.852-7.744-5.151-13.055-4.763-9.122.664-15.082 11.335-14.408 21.396.669 10.057 7.512 19.788 17.111 19.087 5.313-.386 9.073-2.252 12.295-6.62l-.004-.003.31-.495-5.764-6.036z"/><path d="M26.424 387.78c0 3.872 3.745 7.012 8.37 7.012 4.627 0 8.374-3.14 8.374-7.013 0-3.868-3.747-7.008-8.375-7.008-4.625 0-8.37 3.14-8.37 7.008zM361.827 387.78c0 3.872 3.747 7.012 8.374 7.012 4.623 0 8.37-3.14 8.37-7.013 0-3.868-3.747-7.008-8.37-7.008-4.627 0-8.374 3.14-8.374 7.008zM50.068 318.294c8.423 4.887 19.942 4.175 24.603-4.638 2.584-4.882 3.13-9.2 1.396-14.414l-7.953 1.692c1.454 2.874 1.256 5.874-.435 8.662-2.807 4.535-8.826 3.214-13.328.604-4.502-2.617-8.596-7.167-6.58-12.158 1.23-2.984 3.256-4.71 6.255-5.283l-2.316-7.651c-5.147 1.216-8.346 3.997-10.928 8.88-4.43 8.37.873 19.418 9.286 24.306zM96.067 283.683c6.853-7.436 5.83-19.75-1.477-26.7-7.052-6.687-18.053-6.888-24.654.27l-8.49 9.22 26.131 26.423 8.49-9.213zm-20.29-20.523c3.402-3.696 9.018-2.948 12.677.484 3.873 3.649 5.395 10.215 1.778 14.135l-2.437 2.649-14.46-14.626 2.442-2.642z" style="fill:#f5c03e"/><path d="m400.04 357.831 19.354-32.398-7.43-4.861-10.968 18.355.335-25.309-7.438-4.859-19.358 32.393 7.434 4.864 10.969-18.361-.327 25.31z" style="fill:#f5c03e" transform="matrix(.99412 0 0 .99596 -103.408 -87.844)"/><path d="m251.3 239.763.393 8.012 8.932.244-4.022-39.478-7.163-1.876-21.23 32.88 7.98 4.175 3.945-6.875 11.165 2.918zm-1.017-20.659.56 11.782-6.338-1.658 5.778-10.124zM206.188 228.448h1.395c7.749 0 15.193-5.515 15.193-13.637 0-8.117-7.444-13.633-15.193-13.633h-10.11v38.049h8.715v-10.779zm0-18.768h1.395c3.086 0 6.354 1.897 6.354 5.13 0 3.234-3.267 5.137-6.354 5.137h-1.395V209.68zM171.237 227.784c1.789.572 3.47 1.237 3.804 3.171.315 1.877-.79 3.742-2.53 4.327-2.495.81-5.335.212-6.449-2.2l-4.172 7.477c3.542 3.425 8.34 3.914 12.313 3.032 6.33-1.41 10.59-7.868 9.364-14.534-1.076-5.592-5.37-8.142-10.691-9.68l-2.506-.74c-2.69-.759-4.94-1.164-4.787-3.467.091-1.384.94-2.671 2.248-2.963 1.997-.516 4.07-.65 5.432.864l3.931-7.164c-3.378-2.618-6.848-2.95-11.048-2.014-5.273 1.175-10.217 7.01-9.084 13.176 1.11 6.104 6.301 8.187 12.053 10.018l2.122.697z" style="fill:#f5c03e"/><path d="m240.395 335.266-2.829-6.63 9.736-4.53-3.32-7.794-9.735 4.532-2.082-4.887 11.402-5.309-3.319-7.795-19.407 9.035 14.864 34.906 19.962-9.296-3.319-7.796zM450.772 354.254l-16.969 5.147 6.093-17.346-7.906-4.568-7.185 24.333-10.106 9.86 6.059 6.798 10.111-9.857 23.71-5.798z" style="fill:#f5c03e" transform="matrix(.99412 0 0 .99596 -103.408 -87.844)"/><path d="M334.97 317.202c4.87 8.845 16.38 9.57 24.817 4.47 8.438-5.105 13.593-15.915 8.723-24.757-4.87-8.845-16.38-9.57-24.818-4.466-8.436 5.105-13.593 15.908-8.723 24.753zm13.142-16.73c5.24-3.174 10.874-4.092 13.483.63 2.602 4.725-.984 9.378-6.223 12.548-5.24 3.175-10.885 4.093-13.482-.632-2.607-4.721.979-9.381 6.222-12.546z" style="fill:#f5c03e"/><path d="m458.981 453.846 7.917-2.062-3.09-12.98 27.523-7.17-2.121-8.902-35.435 9.241z" style="fill:#f5c03e" transform="matrix(.99412 0 0 .99596 -103.408 -87.844)"/><path d="M47.097 446.398c9.15-2.72 15.144-12.392 12.847-22.052l-2.956-12.432-35.24 9.203 2.96 12.432c2.384 10.031 12.89 15.652 22.39 12.849zm-14.52-14.903-.848-3.571 19.496-5.092.848 3.568c1.188 4.986-2.403 9.583-7.11 11.013-5.01 1.503-11.125-.63-12.386-5.918z" style="fill:#f5c03e"/><path d="m177.67 564.797 7.142-4.135-10.305-19.442-31.95 18.517 10.597 20 7.137-4.135-6.347-11.98 6.07-3.513 5.162 9.745 7.137-4.134-5.163-9.75 4.47-2.591z" style="fill:#f5c03e" transform="matrix(.99412 0 0 .99596 -103.408 -87.844)"/><path d="m108.435 499.878-7.73-6.323-22.354 29.979 8.442 6.912c5.912 4.846 13.612 6.162 17.858.462 2.612-3.499 2.229-7.83-.059-11.56 3.542.813 6.804-.06 9.044-3.056 3.91-5.244.28-11.921-5.201-16.414zm-10.138 24.62c-1.565 2.1-4.081 1.246-6.99-1.134l-1.099-.899 4.25-5.7 1.096.902c3.097 2.535 4.27 4.782 2.743 6.831zm7.264-12.318c-1.12 1.498-2.767 1.44-5.438-.749l-1.047-.858 3.504-4.7.998.824c2.677 2.186 3.102 3.98 1.983 5.483zM113.227 548.025l7.173 5.567 5.026-6.05 10.506 4.897-.934 7.964 8.747 1.861 2.593-39.607-6.751-3.146-26.36 28.514zm23.737-4.405-5.97-2.785 7.36-8.919-1.39 11.704zM188.668 546.318c1.135-7.518-5.034-13.742-12.201-14.933l-9.988-1.66-5.676 37.579 8.607 1.433 1.871-12.405 1.317.22 8.098 15.341 8.19-2.682-7.808-13.622c4.16-1.56 6.97-5.138 7.59-9.271zm-8.728-1.448c-.407 2.693-3.44 3.725-6.014 3.3l-1.372-.229 1.264-8.39 1.372.227c4.01.665 5.158 2.396 4.75 5.092zM218.278 564.342c-5.16 0-7.38-6.007-7.744-11.382-.353-5.377 1.057-11.455 6.15-12.402 3.063-.547 5.545.292 7.639 2.614l4.869-6.202c-3.78-3.855-7.748-5.155-13.065-4.768-9.116.67-15.072 11.34-14.403 21.401.674 10.053 7.513 19.788 17.107 19.088 5.317-.387 9.072-2.254 12.305-6.62l-5.685-6.067c-1.512 2.845-4.022 4.3-7.173 4.338z" style="fill:#f5c03e"/><path d="m360.935 646.418-2.029-6.944 10.194-3.255-2.389-8.16-10.189 3.257-1.497-5.112 11.934-3.816-2.383-8.16-20.318 6.495 10.684 36.533 20.9-6.68-2.384-8.16z" style="fill:#f5c03e" transform="matrix(.99412 0 0 .99596 -103.408 -87.844)"/><path d="M305.48 492.667c-7.007 7.09-4.888 18.967 1.882 26.31 6.766 7.342 18.028 9.966 25.035 2.874 7.008-7.086 4.89-18.967-1.875-26.31-6.776-7.34-18.035-9.967-25.041-2.874zm21.362 23.167c-3.74 3.786-8.922 1.27-13.133-3.29-4.202-4.562-6.42-10.073-2.679-13.861 3.747-3.785 8.926-1.27 13.132 3.29 4.202 4.56 6.427 10.072 2.68 13.861z" style="fill:#f5c03e"/><path d="m399.25 629.504-13.762-25.951-7.663 4.443 17.715 33.41 18.847-10.92-3.959-7.466z" style="fill:#f5c03e" transform="matrix(.99412 0 0 .99596 -103.408 -87.844)"/><path d="m378.75 423.18 7.633-.701-.087-9.353-37.52 5.583-1.54 7.565 32.116 21.089 3.707-8.512-6.703-3.889 2.394-11.782zm-9.813 7.475-9.857-5.694 11.219-1.003-1.362 6.697z" style="fill:#f5c03e"/><path d="m436.153 555.302-4.246 8.016 31.954 18.517 4.251-8.018-18.11-10.494 24.188-.976 4.248-8.017-31.951-18.518-4.256 8.014 18.111 10.498z" style="fill:#f5c03e" transform="matrix(.99412 0 0 .99596 -103.408 -87.844)"/><path d="m57.293 352.552-11.68-2.823.296-1.356 15.18-7.398-1.993-8.741-13.512 7.205c-1.197-4.45-4.41-7.637-8.306-8.579-7.074-1.71-13.428 4.302-15.06 11.716l-2.273 10.317 35.387 8.558 1.961-8.899zm-19.273-6.154-.31 1.418-7.91-1.909.32-1.423c.911-4.14 2.641-5.216 5.176-4.601 2.534.612 3.31 3.857 2.724 6.515z" style="fill:#f5c03e"/><path d="m250.417 262.402-169.452 177.4c3.68 8.681 8.254 16.89 13.6 24.515l180.91-189.387a132.744 132.744 0 0 0-25.058-12.528zM71.008 374.94l114.307-119.663c-60.81 8.437-108.508 57.94-114.307 119.663zM312.997 310.926 132.1 500.309a132.783 132.783 0 0 0 25.035 12.512l169.453-177.393a133.443 133.443 0 0 0-13.59-24.502zM336.545 400.282 222.242 519.947c60.81-8.437 108.51-57.94 114.303-119.665z" style="fill:#fff"/><path d="M275.475 274.93 94.565 464.317A134.187 134.187 0 0 0 132.1 500.31l180.897-189.383a134.184 134.184 0 0 0-37.522-35.996zM337.146 387.616c0-18.518-3.762-36.154-10.559-52.188L157.135 512.82c14.519 5.431 30.234 8.406 46.644 8.406 6.266 0 12.427-.443 18.463-1.28l114.303-119.665c.392-4.17.6-8.393.6-12.666zM203.779 253.996c-6.266 0-12.427.443-18.463 1.28L71.008 374.94c-.392 4.174-.6 8.4-.6 12.677 0 18.517 3.761 36.153 10.557 52.185l169.452-177.4c-14.518-5.43-30.23-8.406-46.638-8.406z" style="fill:#1e6bc0"/></svg>